<svg width="100" height="100" viewBox="0 0 100 100" fill="none" xmlns="http://www.w3.org/2000/svg">
<circle cx="50" cy="50" r="50" fill="#1B1B1B"/>
<path d="M68.229 43.0039C68.2302 40.1923 67.4262 37.4282 65.895 34.9789C64.3637 32.5296 62.157 30.4783 59.4885 29.0233C56.82 27.5684 53.78 26.7592 50.6629 26.6741C47.5458 26.589 44.4571 27.2308 41.6958 28.5375C38.9345 29.8441 36.5942 31.7714 34.9013 34.1326C33.2084 36.4938 32.2204 39.2091 32.0328 42.0155C31.8452 44.8219 32.4645 47.6245 33.8306 50.1519C35.1967 52.6793 37.2634 54.846 39.8307 56.4421L32 68.6672L37.8381 68.8842L40.9641 73.3333L49.9334 59.3258C49.9955 59.3258 50.0524 59.3351 50.1145 59.3351C50.1766 59.3351 50.2336 59.3281 50.2957 59.3258L59.2649 73.3333L62.4531 68.9799L68.229 68.6672L60.3984 56.4421C62.8144 54.9425 64.7896 52.9356 66.1538 50.5945C67.5179 48.2534 68.2302 45.6484 68.229 43.0039ZM37.1756 43.0039C37.1756 40.6967 37.9344 38.4414 39.3562 36.5231C40.7779 34.6047 42.7987 33.1096 45.163 32.2267C47.5273 31.3438 50.1289 31.1128 52.6388 31.5629C55.1487 32.013 57.4542 33.124 59.2637 34.7554C61.0733 36.3868 62.3056 38.4653 62.8049 40.7281C63.3041 42.9909 63.0479 45.3364 62.0686 47.4679C61.0892 49.5995 59.4308 51.4213 57.303 52.7031C55.1752 53.9849 52.6736 54.669 50.1145 54.669C46.6829 54.669 43.3918 53.44 40.9653 51.2524C38.5388 49.0647 37.1756 46.0977 37.1756 43.0039Z" fill="#FFF6F3"/>
<path d="M50.1816 50.1577C54.4692 50.1577 57.9449 47.0241 57.9449 43.1586C57.9449 39.2931 54.4692 36.1595 50.1816 36.1595C45.894 36.1595 42.4182 39.2931 42.4182 43.1586C42.4182 47.0241 45.894 50.1577 50.1816 50.1577Z" fill="#FFF6F3"/>
</svg>
