<svg width="100" height="100" viewBox="0 0 100 100" fill="none" xmlns="http://www.w3.org/2000/svg">
<circle cx="50" cy="50" r="50" fill="#1B1B1B"/>
<path d="M71.8359 68.9066L63.3124 60.1129C66.0652 56.4883 67.5553 52.0132 67.5427 47.4085C67.5427 43.3061 66.3636 39.2959 64.1545 35.8849C61.9453 32.474 58.8054 29.8154 55.1318 28.2455C51.4581 26.6756 47.4157 26.2649 43.5158 27.0652C39.6159 27.8655 36.0336 29.841 33.2219 32.7418C30.4102 35.6426 28.4954 39.3384 27.7197 43.362C26.9439 47.3855 27.3421 51.556 28.8637 55.3461C30.3854 59.1361 32.9623 62.3756 36.2685 64.6547C39.5747 66.9339 43.4617 68.1503 47.438 68.1503C51.9013 68.1634 56.2389 66.626 59.7522 63.7859L68.2757 72.5796C68.75 73.0625 69.3895 73.3333 70.0558 73.3333C70.7222 73.3333 71.3617 73.0625 71.8359 72.5796C72.0702 72.3387 72.2561 72.0525 72.3829 71.7373C72.5098 71.4222 72.5751 71.0843 72.5751 70.7431C72.5751 70.4018 72.5098 70.0639 72.3829 69.7488C72.2561 69.4336 72.0702 69.1474 71.8359 68.9066ZM32.3595 47.4085C32.3595 44.3317 33.2439 41.3241 34.9007 38.7658C36.5576 36.2076 38.9125 34.2137 41.6677 33.0363C44.423 31.8588 47.4548 31.5508 50.3797 32.151C53.3047 32.7513 55.9914 34.2329 58.1002 36.4085C60.2089 38.5841 61.645 41.3559 62.2268 44.3736C62.8086 47.3912 62.51 50.5191 61.3688 53.3617C60.2275 56.2042 58.2949 58.6338 55.8152 60.3432C53.3356 62.0525 50.4203 62.9649 47.438 62.9649C43.4407 62.9592 39.6086 61.3184 36.782 58.4022C33.9555 55.4861 32.3651 51.5325 32.3595 47.4085Z" fill="#FFF6F3"/>
</svg>
