<svg width="100" height="100" viewBox="0 0 100 100" fill="none" xmlns="http://www.w3.org/2000/svg">
<circle cx="50" cy="50" r="50" fill="#1B1B1B"/>
<path d="M44.6009 26.6667H55.4449L63.3126 35.1553M44.6009 26.6667L36.7332 35.1565L36.0012 48.6001L41.8063 57.9071L43.4002 62.6037V70.7691L50.0235 73.3334L56.6468 70.7691V62.6037L58.2418 57.9071L64.0458 48.6001M44.6009 26.6667V36.5445M63.3126 35.1553L64.0458 48.6001M63.3126 35.1553L58.7094 42.6531M64.0458 48.6001L58.7094 42.6531M44.6009 36.5445L36.7344 35.1553M44.6009 36.5445L36 48.6001M44.6009 36.5445L58.7094 42.6531M44.602 36.5445L55.4461 26.6667L58.7094 42.6531M58.7094 42.6531L58.2406 57.9071" stroke="#FFF6F3" stroke-width="2" stroke-linecap="round" stroke-linejoin="round"/>
<path d="M36 48.6L48.8004 50.7766M48.8004 50.7766L58.2418 57.9082M48.8004 50.7766L58.7094 42.653M48.8004 50.7766L44.6009 36.5457M41.8063 57.907L48.8015 50.7754" stroke="#FFF6F3" stroke-width="2" stroke-linecap="round" stroke-linejoin="round"/>
<path d="M48.8002 50.7754L43.4001 62.6036M43.4001 62.6036L58.2417 57.907M43.4001 62.6036H56.6467" stroke="#FFF6F3" stroke-width="2" stroke-linecap="round" stroke-linejoin="round"/>
</svg>
