<svg width="100" height="100" viewBox="0 0 100 100" fill="none" xmlns="http://www.w3.org/2000/svg">
<circle cx="50" cy="50" r="50" fill="#1B1B1B"/>
<path d="M50.6383 29.2433L40.2704 38.772C38.5459 40.352 38.2139 43.196 39.5206 45.2257C40.9023 47.3891 43.5907 47.8145 45.4436 46.1737L56.0793 36.7909C56.8291 36.1346 57.9001 36.2804 58.4892 37.1312C59.0783 37.982 58.9391 39.1973 58.1893 39.8658L55.9508 41.8348L70.8386 57.3918V34.4452H70.7636L70.3459 34.1413L62.57 28.4897C60.9312 27.2986 59.014 26.6666 57.0647 26.6666C54.7298 26.6666 52.4591 27.5782 50.6383 29.2433ZM53.0803 44.3628L47.5429 49.2487C44.169 52.2385 39.2743 51.4607 36.7466 47.5228C34.3688 43.8158 34.9686 38.6383 38.1068 35.7578L47.0181 27.5782C45.7756 26.9826 44.4368 26.6788 43.0766 26.6788C41.063 26.6666 39.1029 27.3472 37.4213 28.6113L29.7097 34.4452V61.67H32.7301L42.5196 71.8064C44.6189 73.9819 47.8642 73.8118 49.7814 71.4296C50.3705 70.6882 50.7668 69.8253 50.9703 68.9259L52.7911 70.8219C54.8797 72.9975 58.1358 72.8395 60.053 70.4694C60.5349 69.8739 60.8884 69.1811 61.1133 68.464C63.1912 70.0441 66.0188 69.7159 67.7646 67.5525C69.6819 65.1825 69.5426 61.4877 67.454 59.3121L53.0803 44.3628ZM17.7137 34.4452C16.7712 34.4452 16 35.3202 16 36.3898V61.67C16 63.8212 17.5316 65.5593 19.4274 65.5593H22.8548C24.7506 65.5593 26.2822 63.8212 26.2822 61.67V34.4452H17.7137ZM21.1411 57.7807C21.5956 57.7807 22.0315 57.9856 22.3529 58.3503C22.6743 58.715 22.8548 59.2096 22.8548 59.7254C22.8548 60.2411 22.6743 60.7357 22.3529 61.1004C22.0315 61.4651 21.5956 61.67 21.1411 61.67C20.6866 61.67 20.2507 61.4651 19.9293 61.1004C19.608 60.7357 19.4274 60.2411 19.4274 59.7254C19.4274 59.2096 19.608 58.715 19.9293 58.3503C20.2507 57.9856 20.6866 57.7807 21.1411 57.7807ZM74.266 34.4452V61.67C74.266 63.8212 75.7976 65.5593 77.6934 65.5593H81.1208C83.0166 65.5593 84.5483 63.8212 84.5483 61.67V36.3898C84.5483 35.3202 83.7771 34.4452 82.8345 34.4452H74.266ZM77.6934 59.7254C77.6934 59.2096 77.874 58.715 78.1954 58.3503C78.5167 57.9856 78.9526 57.7807 79.4071 57.7807C79.8616 57.7807 80.2975 57.9856 80.6189 58.3503C80.9403 58.715 81.1208 59.2096 81.1208 59.7254C81.1208 60.2411 80.9403 60.7357 80.6189 61.1004C80.2975 61.4651 79.8616 61.67 79.4071 61.67C78.9526 61.67 78.5167 61.4651 78.1954 61.1004C77.874 60.7357 77.6934 60.2411 77.6934 59.7254Z" fill="#FFF6F3"/>
</svg>
