<svg width="100" height="100" viewBox="0 0 100 100" fill="none" xmlns="http://www.w3.org/2000/svg">
<circle cx="50" cy="50" r="50" fill="#1B1B1B"/>
<path d="M40.8265 26.9999C38.1719 26.9999 36 29.0999 36 31.6665L36.0241 39.0865C36.0241 40.3232 36.5309 41.4899 37.4238 42.3765L45.6529 50.3332L37.4238 58.3365C36.5309 59.1999 36.0241 60.3899 36.0241 61.6265L36 68.9999C36 71.5665 38.1719 73.6665 40.8265 73.6665H60.1324C62.787 73.6665 64.9589 71.5665 64.9589 68.9999V61.6265C64.9589 60.3899 64.4521 59.1999 63.5592 58.3365L55.3059 50.3332L63.5351 42.3999C64.4521 41.5132 64.9589 40.3232 64.9589 39.0865V31.6665C64.9589 29.0999 62.787 26.9999 60.1324 26.9999H40.8265ZM60.1324 61.7899V66.6665C60.1324 67.9499 59.0464 68.9999 57.7191 68.9999H43.2397C41.9124 68.9999 40.8265 67.9499 40.8265 66.6665V61.7899C40.8265 61.1599 41.0919 60.5765 41.5263 60.1332L50.4794 51.4999L59.4326 60.1565C59.8669 60.5765 60.1324 61.1832 60.1324 61.7899Z" fill="#FFF6F3"/>
</svg>
