<svg width="100" height="100" viewBox="0 0 100 100" fill="none" xmlns="http://www.w3.org/2000/svg">
<circle cx="50" cy="50" r="50" fill="#1B1B1B"/>
<path d="M49.848 26.6667C45.5579 26.6667 42.99 27.2411 41.3577 27.9573C40.5406 28.3162 39.9604 28.6932 39.5702 29.0791C39.3023 29.3658 39.0866 29.6873 38.9308 30.0321C38.8667 30.1763 38.8242 30.3271 38.8041 30.4809L37.7173 42.765C37.703 42.8403 37.7316 42.9624 37.7173 43.045L37.5907 44.2798C37.5788 44.3915 37.5788 44.5038 37.5907 44.6155C37.5907 50.5385 43.1064 55.3847 49.848 55.3847C56.5895 55.3847 62.1052 50.5385 62.1052 44.6155V44.3355C62.1056 44.3169 62.1056 44.2984 62.1052 44.2798L60.8918 30.4809C60.8717 30.3271 60.8292 30.1763 60.7651 30.0321C60.7651 30.0321 60.5179 29.465 60.1257 29.0791C59.7355 28.6914 59.1553 28.3144 58.3382 27.9573C56.7059 27.2393 54.138 26.6667 49.848 26.6667ZM49.848 55.3847C36.3649 55.3847 25.3334 60.9596 25.3334 65.9852V73.3334H74.3625V65.9852C74.3625 61.2108 64.3892 55.9519 51.8275 55.4403C51.1686 55.4021 50.5083 55.3836 49.848 55.3847ZM49.848 30.2565C53.7294 30.2565 55.6681 30.795 56.4873 31.1539C56.7611 31.2742 56.7938 31.3209 56.8714 31.3783L57.7008 40.577C55.8213 40.6775 53.2596 41.0257 49.848 41.0257C46.4363 41.0257 43.8766 40.6775 41.9951 40.577L42.8245 31.3783C42.9001 31.3209 42.9348 31.2742 43.2086 31.1539C44.0278 30.795 45.9665 30.2565 49.848 30.2565ZM48.1871 32.0514V34.1837H45.7622V37.1003H48.1891V39.2309H51.5068V37.0985H53.9337V34.1837H51.5068V32.0514H48.1871ZM43.7193 59.4232L48.9552 69.7437H29.4191V65.9852C29.4191 64.648 34.6285 60.7316 43.7193 59.4232ZM55.9766 59.4232C65.0674 60.7334 70.2768 64.648 70.2768 65.9852V69.7437H50.7407L55.9766 59.4232Z" fill="#FFF6F3"/>
</svg>
